<?xml version="1.0" encoding="UTF-8"?>
<svg id="Layer_1" data-name="Layer 1" xmlns="http://www.w3.org/2000/svg" viewBox="0 0 3848.65 1054.82">
  <defs>
    <style>
      .cls-1 {
        fill: #f4f5f6;
      }
    </style>
  </defs>
  <rect class="cls-1" x="1712.35" y="18.88" width="87.45" height="421.45"/>
  <path class="cls-1" d="M1940.27,257.39c0-13.59,2.56-25.32,7.71-35.19,5.15-9.88,12.25-17.43,21.3-22.65,9.05-5.21,19.63-7.81,31.68-7.81s21.97,2.46,30.46,7.41c8.52,4.94,15.01,12.11,19.46,21.51,4.45,9.4,6.68,20.55,6.68,33.44v186.24h86.22v-201.26c0-24.29-4.45-45.41-13.36-63.38-8.94-17.97-21.6-31.72-38.09-41.26-16.45-9.54-35.58-14.31-57.41-14.31-15.51,0-29.54,2.41-42.07,7.21-12.56,4.8-23.33,11.69-32.32,20.67-8.99,8.99-15.87,19.59-20.69,31.79h-3.7v-55.56h-82.1v316.09h86.22v-182.94Z"/>
  <polygon class="cls-1" points="2353.16 440.33 2463.88 124.24 2372.7 124.24 2306.44 351.43 2303.15 351.43 2236.7 124.24 2145.52 124.24 2256.24 440.33 2353.16 440.33"/>
  <path class="cls-1" d="M2557.73,1.07c-7.18-3.91-15.03-5.86-23.55-5.86s-16.15,1.95-23.36,5.86c-7.21,3.91-12.92,9.26-17.18,16.05-4.26,6.79-6.38,14.1-6.38,21.91s2.12,15.31,6.38,22.02c4.26,6.72,9.97,12.04,17.18,15.95,7.21,3.91,14.98,5.86,23.36,5.86s16.37-1.95,23.55-5.86c7.21-3.91,12.92-9.23,17.09-15.95,4.18-6.71,6.26-14.06,6.26-22.02s-2.09-15.12-6.26-21.91c-4.18-6.79-9.88-12.14-17.09-16.05Z"/>
  <rect class="cls-1" x="2490.97" y="124.24" width="86.22" height="316.09"/>
  <path class="cls-1" d="M2880.12,396.91c11.58-15.65,17.46-33.69,17.6-54.12-.14-22.77-7.68-41.16-22.63-55.15-14.98-14-37.75-24.15-68.35-30.46l-56.99-11.53c-14.28-3.16-24.64-7.41-31.07-12.76-6.46-5.35-9.6-11.72-9.47-19.13-.14-6.18,1.95-11.73,6.26-16.68,4.32-4.94,10.19-8.74,17.6-11.41,7.41-2.69,15.79-4.02,25.11-4.02,14.25,0,26,3.27,35.19,9.79,9.19,6.51,14.76,15.47,16.68,26.85h80.65c-1.5-20.17-7.77-37.63-18.82-52.38-11.05-14.74-26.42-26.06-46.1-33.95-19.68-7.88-42.71-11.83-69.04-11.83s-50.34,3.98-70.38,11.94c-20.02,7.95-35.52,19.38-46.49,34.26-10.97,14.88-16.4,32.34-16.26,52.37-.14,23.33,7.46,42.64,22.83,57.94,15.37,15.3,38.14,25.89,68.32,31.79l52.28,10.29c14.81,3.16,25.7,7.34,32.6,12.56,6.93,5.21,10.41,11.93,10.41,20.17,0,6.72-2.17,12.51-6.49,17.39-4.32,4.87-10.44,8.64-18.32,11.32-7.88,2.67-17.04,4.01-27.48,4.01-16.04,0-28.9-3.15-38.59-9.47-9.66-6.31-15.53-15.63-17.6-27.98h-86.42c2.34,20.71,9.35,38.52,21.08,53.4,11.75,14.88,27.9,26.34,48.47,34.37,20.57,8.02,44.93,12.04,73.05,12.04s52.15-4.36,73.28-13.07c21.1-8.71,37.47-20.89,49.08-36.53Z"/>
  <rect class="cls-1" x="2935.72" y="124.24" width="86.22" height="316.09"/>
  <path class="cls-1" d="M2955.57,77.01c7.21,3.91,14.98,5.86,23.36,5.86s16.37-1.95,23.55-5.86c7.21-3.91,12.92-9.23,17.09-15.95,4.18-6.71,6.26-14.06,6.26-22.02s-2.09-15.12-6.26-21.91c-4.18-6.79-9.88-12.14-17.09-16.05-7.18-3.91-15.03-5.86-23.55-5.86s-16.15,1.95-23.36,5.86c-7.21,3.91-12.92,9.26-17.18,16.05-4.26,6.79-6.38,14.1-6.38,21.91s2.12,15.31,6.38,22.02c4.26,6.72,9.97,12.04,17.18,15.95Z"/>
  <path class="cls-1" d="M3156.51,389.91h3.7c.42.7.72,1.27.92,1.75.22.47.45.99.72,1.55,5.23,9.87,11.55,18.58,19.04,26.13,7.49,7.54,17.04,13.79,28.7,18.72,11.67,4.94,25.17,7.42,40.54,7.42,24.42,0,46.38-6.32,65.87-18.93,19.46-12.63,34.8-31.21,45.99-55.78,11.16-24.56,16.76-53.91,16.76-88.07s-5.68-64.52-17.07-89.01c-11.39-24.49-26.84-42.87-46.3-55.15-19.49-12.28-41.18-18.42-65.04-18.42-15.51,0-28.98,2.44-40.45,7.31-11.44,4.87-20.82,11.01-28.09,18.42-7.27,7.41-13.5,15.98-18.71,25.72-.42.96-.89,1.89-1.45,2.78-.56.89-1.03,1.88-1.45,2.98h-2.48V18.88h-86v421.45h84.77v-50.42ZM3163.83,232.58c5.26-14.06,12.95-24.82,23.02-32.31,10.11-7.48,22.19-11.21,36.33-11.21s26.67,3.87,36.83,11.62c10.16,7.75,17.82,18.63,22.94,32.62,5.15,13.99,7.74,30.32,7.74,48.97s-2.59,35.26-7.74,49.39c-5.12,14.14-12.83,25.18-23.05,33.14-10.22,7.95-22.47,11.93-36.72,11.93s-26.03-3.91-36.11-11.73c-10.08-7.81-17.82-18.82-23.16-33.02-5.35-14.2-8.02-30.78-8.02-49.71s2.64-35.62,7.93-49.7Z"/>
  <rect class="cls-1" x="3410.29" y="18.88" width="86.22" height="421.45"/>
  <path class="cls-1" d="M3836.39,280.42c0-34.84-6.46-64.3-19.35-88.38-12.89-24.08-30.54-42.08-52.9-54.02-22.36-11.93-47.75-17.9-76.14-17.9-30.46,0-57.21,6.82-80.26,20.48-23.02,13.66-40.9,32.87-53.59,57.62-12.7,24.76-19.04,53.27-19.04,85.51s6.32,62.01,18.93,86.43c12.64,24.42,30.71,43.25,54.23,56.49,23.53,13.24,51.28,19.86,83.24,19.86,25.64,0,48.5-3.95,68.52-11.85,20.05-7.88,36.36-19.06,48.97-33.53,12.64-14.48,20.99-31.39,25.11-50.73h-81.91c-2.87,6.31-7.1,11.83-12.64,16.57-5.57,4.73-12.28,8.41-20.18,11.01-7.88,2.6-16.7,3.91-26.42,3.91-14.7,0-27.48-3.16-38.39-9.48-10.91-6.31-19.35-15.26-25.31-26.85-5.96-11.58-8.96-25.28-8.96-41.05h216.1v-24.08ZM3620.7,250.59c.58-11.39,3.27-22.03,8.67-31.7,5.87-10.57,14.09-18.93,24.58-25.1,10.5-6.18,22.38-9.27,35.69-9.27s23.89,2.81,33.77,8.44c9.86,5.64,17.6,13.45,23.14,23.47,5.57,10.01,8.41,21.4,8.55,34.16h-134.4Z"/>
  <polygon class="cls-1" points="2193.26 613.54 2122.68 908.84 2119.18 908.84 2041.81 613.54 1959.48 613.54 1882.12 908.43 1878.41 908.43 1807.84 613.54 1712.35 613.54 1832.73 1034.99 1918.34 1034.99 1999.02 756.97 2002.3 756.97 2082.96 1034.99 2168.37 1034.99 2288.75 613.54 2193.26 613.54"/>
  <path class="cls-1" d="M2507.55,735.16c-23.39-13.59-50.81-20.38-82.21-20.38s-58.85,6.79-82.32,20.38c-23.44,13.57-41.48,32.68-54.12,57.31-12.61,24.62-18.93,53.19-18.93,85.71s6.32,60.68,18.93,85.3c12.64,24.62,30.68,43.72,54.12,57.31,23.47,13.59,50.89,20.38,82.32,20.38s58.83-6.79,82.21-20.38c23.39-13.59,41.37-32.68,53.9-57.31,12.56-24.62,18.85-53.06,18.85-85.3s-6.29-61.08-18.85-85.71c-12.53-24.62-30.51-43.74-53.9-57.31ZM2485.11,927.47c-5.15,14.6-12.75,26.06-22.83,34.37-10.11,8.3-22.27,12.44-36.53,12.44s-26.92-4.15-37.17-12.44c-10.22-8.31-17.93-19.72-23.14-34.27-5.21-14.53-7.82-31.21-7.82-50s2.62-35.33,7.82-50.02c5.21-14.67,12.92-26.16,23.14-34.47,10.25-8.3,22.61-12.44,37.17-12.44s26.42,4.19,36.53,12.56c10.08,8.37,17.68,19.85,22.83,34.47,5.15,14.6,7.71,31.25,7.71,49.9s-2.56,35.29-7.71,49.9Z"/>
  <path class="cls-1" d="M2749.68,721.06c-10.11,4.45-18.85,11.18-26.25,20.17-7.41,8.98-13.03,19.85-16.87,32.62h-3.29v-54.94h-83.55v316.09h86.22v-179.65c0-12.75,2.92-24.18,8.74-34.26,5.82-10.09,13.86-17.9,24.08-23.47,10.22-5.55,21.77-8.32,34.66-8.32,6.18,0,12.78.47,19.77,1.43,6.99.96,12.7,2.06,17.09,3.3v-76.96c-9.08-1.78-18.26-2.67-27.59-2.67-11.94,0-22.94,2.23-33.02,6.68Z"/>
  <polygon class="cls-1" points="3129.98 718.9 3030.98 718.9 2928.3 839.7 2923.57 839.7 2923.57 613.54 2837.35 613.54 2837.35 1034.99 2923.57 1034.99 2923.57 933.9 2947.71 906.5 3035.1 1034.99 3136.16 1034.99 3012.11 855.79 3129.98 718.9"/>
  <path class="cls-1" d="M3321.55,851.84l-56.99-11.53c-14.28-3.16-24.64-7.41-31.07-12.76-6.46-5.35-9.6-11.72-9.47-19.13-.14-6.18,1.95-11.73,6.26-16.68,4.32-4.94,10.19-8.74,17.6-11.41,7.41-2.69,15.79-4.02,25.11-4.02,14.25,0,26,3.27,35.19,9.79,9.19,6.51,14.76,15.47,16.68,26.85h80.65c-1.5-20.17-7.77-37.63-18.82-52.38-11.05-14.74-26.42-26.06-46.1-33.95-19.68-7.88-42.71-11.83-69.04-11.83s-50.34,3.98-70.38,11.94c-20.02,7.95-35.52,19.38-46.49,34.26-10.97,14.88-16.4,32.34-16.26,52.37-.14,23.33,7.46,42.64,22.83,57.94,15.37,15.3,38.14,25.89,68.32,31.79l52.28,10.29c14.81,3.16,25.7,7.34,32.6,12.56,6.93,5.21,10.41,11.93,10.41,20.17,0,6.72-2.17,12.51-6.49,17.39-4.32,4.87-10.44,8.64-18.32,11.32-7.88,2.67-17.04,4.01-27.48,4.01-16.04,0-28.9-3.15-38.59-9.47-9.66-6.31-15.53-15.63-17.6-27.98h-86.42c2.34,20.71,9.35,38.52,21.08,53.4,11.75,14.88,27.9,26.34,48.47,34.37,20.57,8.02,44.93,12.04,73.05,12.04s52.15-4.36,73.28-13.07c21.1-8.71,37.47-20.89,49.08-36.53,11.58-15.65,17.46-33.69,17.6-54.12-.14-22.77-7.68-41.16-22.63-55.15-14.98-14-37.75-24.15-68.35-30.46Z"/>
  <polygon class="cls-1" points="947.69 355.29 947.69 15.44 607.84 15.44 352.96 355.29 352.96 15.44 13.11 15.44 13.11 355.29 352.96 355.29 98.07 695.14 98.07 1034.98 437.92 1034.98 692.8 695.14 692.8 1034.98 1032.65 1034.98 1542.42 355.29 1542.42 15.44 1202.57 15.44 947.69 355.29"/>
</svg>